<svg xmlns="http://www.w3.org/2000/svg" width="41" height="41" viewBox="0 0 41 41" fill="none">
<mask id="mask0_94_1971" style="mask-type:luminance" maskUnits="userSpaceOnUse" x="6" y="6" width="29" height="29">
<path fill-rule="evenodd" clip-rule="evenodd" d="M21.9418 6.02246C28.8699 6.3058 34.2427 11.8308 34.6668 18.6308V19.3391C34.6668 21.4641 34.2427 23.5891 33.2529 25.4308C30.9907 29.9641 26.3249 32.7975 21.2348 32.7975C19.2554 32.7975 17.4173 32.3725 15.7207 31.6641L8.22703 34.2141C8.08564 34.3558 7.94425 34.3558 7.80286 34.3558C7.37869 34.3558 7.09591 34.2141 6.67174 33.9308C6.38896 33.6475 6.24757 33.0808 6.38896 32.5141L8.93397 25.0058C8.22703 23.3058 7.80286 21.3225 7.80286 19.4808C7.80286 14.3808 10.6306 9.7058 15.2965 7.43913C17.1346 6.44746 19.114 6.02246 21.2348 6.02246H21.9418ZM30.7079 24.2975C31.4149 22.7392 31.8391 21.1809 31.8391 19.4809V18.7725C31.4149 13.3892 27.1732 9.13921 21.8004 8.85588H21.2349C19.6796 8.85588 17.9829 9.28088 16.569 9.98921C12.8929 11.8309 10.6307 15.3725 10.6307 19.4809C10.6307 21.0392 11.0548 22.7392 11.7618 24.1559C12.0446 24.5809 12.0446 24.8642 11.9032 25.2892L10.0651 30.6725L15.4379 28.8309C15.8621 28.8309 16.2862 28.8309 16.569 28.9725C17.9829 29.6809 19.6796 30.1059 21.2349 30.1059C25.3352 30.1059 28.8699 27.9809 30.7079 24.2975Z" fill="white"/>
</mask>
<g mask="url(#mask0_94_1971)">
<path d="M37.5 3.18945H3.5V37.1895H37.5V3.18945Z" fill="#4A5EAA"/>
</g>
</svg>