<svg xmlns="http://www.w3.org/2000/svg" width="32" height="30" viewBox="0 0 32 30" fill="none">
<path d="M18.21 1.37606C20.0325 1.85903 21.7412 2.69862 23.2371 3.84627C24.733 4.99391 25.9865 6.42681 26.925 8.06206L27.977 9.88406L29.22 5.26706L31.787 5.95806L29.365 14.9501L20.404 12.6281L21.07 10.0561L25.7 11.2561L24.623 9.39106C21.399 3.80706 14.233 1.88706 8.64802 5.11106C3.06401 8.33406 1.14401 15.4991 4.36801 21.0831C7.59301 26.6671 14.759 28.5871 20.343 25.3631L21.494 24.6991L22.824 27.0001L21.672 27.6651C20.0417 28.612 18.2398 29.2262 16.3705 29.4721C14.5013 29.7181 12.6018 29.591 10.782 29.0981C8.95941 28.615 7.2507 27.7752 5.75478 26.6274C4.25886 25.4796 3.00543 24.0465 2.06701 22.4111C1.11965 20.7811 0.505023 18.9794 0.258703 17.1103C0.0123839 15.2412 0.13927 13.3418 0.632015 11.5221C1.11532 9.6998 1.95529 7.99151 3.10329 6.49609C4.25129 5.00067 5.68453 3.74781 7.32001 2.81006C8.95034 1.86316 10.7523 1.24896 12.6215 1.00298C14.4908 0.757012 16.3902 0.883157 18.21 1.37606Z" fill="#A14669"/>
</svg>