<svg xmlns="http://www.w3.org/2000/svg" width="41" height="41" viewBox="0 0 41 41" fill="none">
<path fill-rule="evenodd" clip-rule="evenodd" d="M9.1665 10.2728H31.8332C32.6156 10.2728 33.2498 10.9071 33.2498 11.6895V28.6895C33.2498 29.4719 32.6156 30.1062 31.8332 30.1062H9.1665C8.3841 30.1062 7.74984 29.4719 7.74984 28.6895V11.6895C7.74984 10.9071 8.3841 10.2728 9.1665 10.2728ZM4.9165 11.6895C4.9165 9.34224 6.81929 7.43945 9.1665 7.43945H31.8332C34.1804 7.43945 36.0832 9.34224 36.0832 11.6895V28.6895C36.0832 31.0367 34.1804 32.9395 31.8332 32.9395H9.1665C6.81929 32.9395 4.9165 31.0367 4.9165 28.6895V11.6895ZM27.5832 27.2728C29.148 27.2728 30.4165 26.0043 30.4165 24.4395C30.4165 22.8747 29.148 21.6062 27.5832 21.6062C26.0184 21.6062 24.7498 22.8747 24.7498 24.4395C24.7498 26.0043 26.0184 27.2728 27.5832 27.2728ZM10.5832 15.9395C10.5832 15.1571 11.2174 14.5228 11.9998 14.5228H28.9998C29.7822 14.5228 30.4165 15.1571 30.4165 15.9395C30.4165 16.7219 29.7822 17.3562 28.9998 17.3562H11.9998C11.2174 17.3562 10.5832 16.7219 10.5832 15.9395ZM11.9998 20.1895C11.2174 20.1895 10.5832 20.8238 10.5832 21.6062C10.5832 22.3886 11.2174 23.0228 11.9998 23.0228H20.9721C21.7545 23.0228 22.3888 22.3886 22.3888 21.6062C22.3888 20.8238 21.7545 20.1895 20.9721 20.1895H11.9998Z" fill="#4A5EAA"/>
<mask id="mask0_94_1945" style="mask-type:alpha" maskUnits="userSpaceOnUse" x="4" y="7" width="33" height="26">
<path fill-rule="evenodd" clip-rule="evenodd" d="M31.8332 10.2728H9.1665C8.3841 10.2728 7.74984 10.9071 7.74984 11.6895V28.6895C7.74984 29.4719 8.3841 30.1062 9.1665 30.1062H31.8332C32.6156 30.1062 33.2498 29.4719 33.2498 28.6895V11.6895C33.2498 10.9071 32.6156 10.2728 31.8332 10.2728ZM9.1665 7.43945C6.81929 7.43945 4.9165 9.34224 4.9165 11.6895V28.6895C4.9165 31.0367 6.81929 32.9395 9.1665 32.9395H31.8332C34.1804 32.9395 36.0832 31.0367 36.0832 28.6895V11.6895C36.0832 9.34224 34.1804 7.43945 31.8332 7.43945H9.1665Z" fill="#6E6B7B"/>
<path d="M30.4167 24.4398C30.4167 26.0046 29.1481 27.2731 27.5833 27.2731C26.0185 27.2731 24.75 26.0046 24.75 24.4398C24.75 22.875 26.0185 21.6064 27.5833 21.6064C29.1481 21.6064 30.4167 22.875 30.4167 24.4398Z" fill="#6E6B7B"/>
<path d="M28.9996 14.5225H11.9997C11.2173 14.5225 10.583 15.1567 10.583 15.9391C10.583 16.7215 11.2173 17.3558 11.9997 17.3558H28.9996C29.782 17.3558 30.4163 16.7215 30.4163 15.9391C30.4163 15.1567 29.782 14.5225 28.9996 14.5225Z" fill="#6E6B7B"/>
<path d="M10.583 21.6062C10.583 20.8238 11.2173 20.1895 11.9997 20.1895H20.972C21.7544 20.1895 22.3886 20.8238 22.3886 21.6062C22.3886 22.3886 21.7544 23.0228 20.972 23.0228H11.9997C11.2173 23.0228 10.583 22.3886 10.583 21.6062Z" fill="#6E6B7B"/>
</mask>
<g mask="url(#mask0_94_1945)">
<path d="M37.5 3.18945H3.5V37.1895H37.5V3.18945Z" fill="#4A5EAA"/>
</g>
</svg>