<svg xmlns="http://www.w3.org/2000/svg" width="41" height="41" viewBox="0 0 41 41" fill="none">
<mask id="mask0_94_1934" style="mask-type:luminance" maskUnits="userSpaceOnUse" x="3" y="6" width="35" height="29">
<path fill-rule="evenodd" clip-rule="evenodd" d="M9.18945 13.1058C9.18945 9.13913 12.3185 6.02246 16.301 6.02246C20.2835 6.02246 23.4126 9.13913 23.4126 13.1058C23.4126 17.0725 20.2835 20.1891 16.301 20.1891C12.3185 20.1891 9.18945 17.0725 9.18945 13.1058ZM29.1016 30.1058V32.9391C29.1016 33.7891 28.5327 34.3558 27.6793 34.3558C26.8259 34.3558 26.257 33.7891 26.257 32.9391V30.1058C26.257 27.6975 24.408 25.8558 21.9901 25.8558H10.6116C8.19363 25.8558 6.34463 27.6975 6.34463 30.1058V32.9391C6.34463 33.7891 5.7757 34.3558 4.92231 34.3558C4.06893 34.3558 3.5 33.7891 3.5 32.9391V30.1058C3.5 26.1391 6.62909 23.0225 10.6116 23.0225H21.9901C25.9726 23.0225 29.1016 26.1391 29.1016 30.1058ZM16.3008 17.3558C13.8829 17.3558 12.0339 15.5141 12.0339 13.1058C12.0339 10.6975 13.8829 8.8558 16.3008 8.8558C18.7187 8.8558 20.5677 10.6975 20.5677 13.1058C20.5677 15.5141 18.7187 17.3558 16.3008 17.3558ZM32.2308 23.3058C31.5196 23.1641 30.6662 23.5891 30.524 24.2974C30.3818 25.0058 30.8085 25.8558 31.5196 25.9974C33.3686 26.4224 34.6487 28.1224 34.6487 30.1058V32.9391C34.6487 33.7891 35.2176 34.3558 36.071 34.3558C36.9244 34.3558 37.4933 33.7891 37.4933 32.9391V30.1058C37.6356 26.8474 35.5021 24.0141 32.2308 23.3058ZM24.8346 7.29751C25.119 6.44751 25.8302 6.02251 26.5414 6.30584C30.3816 7.15584 32.6573 11.1225 31.6617 15.0892C31.0928 17.6392 29.1015 19.4808 26.5414 20.1892H26.2569C25.5457 20.1892 24.9768 19.7642 24.8346 19.0558C24.5501 18.3475 25.119 17.4975 25.8302 17.3558C27.3947 16.9308 28.5326 15.7975 28.9593 14.2392C29.5282 11.8308 28.1059 9.56417 25.8302 8.99751C25.119 8.85584 24.6923 8.00584 24.8346 7.29751Z" fill="white"/>
</mask>
<g mask="url(#mask0_94_1934)">
<path d="M37.5 3.18945H3.5V37.1895H37.5V3.18945Z" fill="#4A5EAA"/>
</g>
</svg>