<svg xmlns="http://www.w3.org/2000/svg" width="41" height="41" viewBox="0 0 41 41" fill="none">
<mask id="mask0_94_1960" style="mask-type:luminance" maskUnits="userSpaceOnUse" x="4" y="4" width="33" height="32">
<path fill-rule="evenodd" clip-rule="evenodd" d="M20.4998 4.60645C11.8582 4.60645 4.9165 11.5481 4.9165 20.1898C4.9165 28.8314 11.8582 35.7731 20.4998 35.7731C29.1415 35.7731 36.0832 28.8314 36.0832 20.1898C36.0832 11.5481 29.1415 4.60645 20.4998 4.60645ZM33.1082 18.7732H27.4415C27.1582 14.8065 25.8832 11.1232 23.6165 7.86483C28.7165 9.13983 32.5415 13.5315 33.1082 18.7732ZM24.7503 21.6064H16.3919C16.6753 25.4314 18.0919 29.1147 20.6419 32.0897C22.9086 29.1147 24.3253 25.4314 24.7503 21.6064ZM16.3919 18.773C16.8169 14.948 18.2336 11.2646 20.5003 8.28964C22.9086 11.4063 24.3253 15.0896 24.6086 18.773H16.3919ZM13.5586 18.7732C13.8419 14.8065 15.1169 11.1232 17.2419 7.86483C12.2836 9.13983 8.45859 13.5315 7.89193 18.7732H13.5586ZM7.89193 21.6064H13.5586C13.8419 25.573 15.1169 29.2564 17.3836 32.5147C12.2836 31.2397 8.45859 26.848 7.89193 21.6064ZM27.5835 21.6064C27.1585 25.573 25.8835 29.2564 23.7585 32.5147C28.7168 31.2397 32.5418 26.848 33.2501 21.6064H27.5835Z" fill="white"/>
</mask>
<g mask="url(#mask0_94_1960)">
<path d="M37.5 3.18945H3.5V37.1895H37.5V3.18945Z" fill="#4A5EAA"/>
</g>
</svg>