<svg xmlns="http://www.w3.org/2000/svg" width="37" height="37" viewBox="0 0 37 37" fill="none">
<mask id="mask0_0_1272" style="mask-type:luminance" maskUnits="userSpaceOnUse" x="10" y="13" width="16" height="11">
<path fill-rule="evenodd" clip-rule="evenodd" d="M11.3418 14.8711H24.8418C25.2918 14.8711 25.5918 14.5711 25.5918 14.1211C25.5918 13.6711 25.2918 13.3711 24.8418 13.3711H11.3418C10.8918 13.3711 10.5918 13.6711 10.5918 14.1211C10.5918 14.5711 10.8918 14.8711 11.3418 14.8711ZM25.5918 18.6211C25.5918 19.0711 25.2918 19.3711 24.8418 19.3711H11.3418C10.8918 19.3711 10.5918 19.0711 10.5918 18.6211C10.5918 18.1711 10.8918 17.8711 11.3418 17.8711H24.8418C25.2918 17.8711 25.5918 18.1711 25.5918 18.6211ZM11.3418 22.3711H24.8418C25.2918 22.3711 25.5918 22.6711 25.5918 23.1211C25.5918 23.5711 25.2918 23.8711 24.8418 23.8711H11.3418C10.8918 23.8711 10.5918 23.5711 10.5918 23.1211C10.5918 22.6711 10.8918 22.3711 11.3418 22.3711Z" fill="white"/>
</mask>
<g mask="url(#mask0_0_1272)">
<path d="M27.0918 9.62109H9.0918V27.6211H27.0918V9.62109Z" fill="#202E48"/>
</g>
</svg>