<svg width="21" height="15" viewBox="0 0 21 15" fill="none" xmlns="http://www.w3.org/2000/svg">
<path id="Vector" fill-rule="evenodd" clip-rule="evenodd" d="M0.0917969 2.15088V12.1509C0.0917969 13.2555 0.987227 14.1509 2.0918 14.1509H18.0918C19.1964 14.1509 20.0918 13.2555 20.0918 12.1509V2.15088C20.0918 1.04631 19.1964 0.150879 18.0918 0.150879H2.0918C0.987227 0.150879 0.0917969 1.04631 0.0917969 2.15088ZM19.0918 2.16778V2.15088C19.0918 1.5986 18.6441 1.15088 18.0918 1.15088H2.0918C1.53952 1.15088 1.0918 1.5986 1.0918 2.15088V2.16778L9.3201 7.10478C9.7951 7.38978 10.3885 7.38978 10.8635 7.10478L19.0918 2.16778ZM1.0918 3.33398V12.1509C1.0918 12.7032 1.53952 13.1509 2.0918 13.1509H18.0918C18.6441 13.1509 19.0918 12.7032 19.0918 12.1509V3.33398L11.378 7.96228C10.5863 8.43728 9.5973 8.43728 8.8056 7.96228L1.0918 3.33398Z" fill="#4C5C79"/>
</svg>
