<svg width="31" height="31" viewBox="0 0 31 31" fill="none" xmlns="http://www.w3.org/2000/svg">
<g id="SVG" clip-path="url(#clip0_0_1164)">
<path id="Vector" d="M30.5118 15.4814C30.5118 7.19717 23.7961 0.481445 15.5118 0.481445C7.22751 0.481445 0.51178 7.19717 0.51178 15.4814C0.51178 23.7657 7.22751 30.4814 15.5118 30.4814C23.7961 30.4814 30.5118 23.7657 30.5118 15.4814Z" fill="white"/>
<path id="Vector_2" d="M11.3702 5.55138C10.3062 5.60158 9.57961 5.77138 8.94441 6.02098C8.28701 6.27718 7.7298 6.62098 7.1754 7.17738C6.621 7.73379 6.2796 8.29139 6.0252 8.94979C5.779 9.58639 5.6122 10.3136 5.5652 11.3782C5.5182 12.4428 5.5078 12.785 5.513 15.5006C5.5182 18.2162 5.5302 18.5566 5.5818 19.6234C5.6326 20.6872 5.8018 21.4136 6.0514 22.049C6.308 22.7064 6.6514 23.2634 7.208 23.818C7.7646 24.3726 8.32181 24.7132 8.98181 24.968C9.61781 25.2138 10.3452 25.3814 11.4096 25.428C12.474 25.4746 12.8166 25.4854 15.5315 25.4802C18.2463 25.475 18.5881 25.463 19.6547 25.4124C20.7213 25.3618 21.4439 25.1914 22.0795 24.943C22.7369 24.6858 23.2943 24.343 23.8485 23.7862C24.4027 23.2294 24.7439 22.6714 24.9981 22.0126C25.2445 21.3766 25.4119 20.6492 25.4581 19.5856C25.5047 18.5182 25.5157 18.1774 25.5105 15.4622C25.5053 12.747 25.4931 12.4066 25.4425 11.3402C25.3919 10.2738 25.2225 9.54959 24.9731 8.91379C24.7161 8.25639 24.3731 7.69979 23.8167 7.14478C23.2603 6.58978 22.7019 6.24878 22.0433 5.99518C21.4069 5.74898 20.6799 5.58118 19.6155 5.53518C18.5511 5.48918 18.2085 5.47738 15.4927 5.48258C12.7768 5.48778 12.4368 5.49938 11.3702 5.55138ZM11.487 23.629C10.512 23.5866 9.98261 23.4246 9.62981 23.289C9.16261 23.109 8.82981 22.8914 8.47821 22.5432C8.12661 22.195 7.9106 21.861 7.7282 21.3948C7.5912 21.042 7.4262 20.5132 7.3806 19.5382C7.331 18.4844 7.3206 18.168 7.3148 15.4982C7.309 12.8284 7.3192 12.5124 7.3654 11.4582C7.407 10.484 7.57 9.95399 7.7054 9.60139C7.8854 9.13359 8.10221 8.80139 8.45121 8.44999C8.80021 8.09859 9.13321 7.88219 9.59981 7.69979C9.95221 7.56218 10.481 7.39858 11.4556 7.35218C12.5102 7.30218 12.8262 7.29218 15.4957 7.28638C18.1651 7.28058 18.4819 7.29058 19.5369 7.33698C20.5111 7.37938 21.0413 7.54078 21.3935 7.67699C21.8609 7.85699 22.1935 8.07319 22.5449 8.42279C22.8963 8.77239 23.1129 9.10419 23.2953 9.57179C23.4331 9.92319 23.5967 10.4518 23.6427 11.427C23.6929 12.4816 23.7043 12.7978 23.7091 15.467C23.7139 18.1362 23.7045 18.4532 23.6583 19.507C23.6157 20.482 23.4541 21.0116 23.3183 21.3648C23.1383 21.8318 22.9213 22.1648 22.5721 22.516C22.2229 22.8672 21.8903 23.0836 21.4235 23.266C21.0715 23.4034 20.5421 23.5674 19.5683 23.6138C18.5137 23.6634 18.1977 23.6738 15.5273 23.6796C12.8568 23.6854 12.5416 23.6746 11.487 23.629ZM19.6393 10.1368C19.6397 10.3742 19.7104 10.606 19.8426 10.8031C19.9748 11.0003 20.1625 11.1538 20.382 11.2442C20.6014 11.3347 20.8428 11.358 21.0755 11.3113C21.3082 11.2646 21.5218 11.1499 21.6894 10.9817C21.8569 10.8136 21.9708 10.5995 22.0167 10.3667C22.0625 10.1338 22.0383 9.89256 21.947 9.67345C21.8558 9.45433 21.7016 9.2672 21.504 9.13572C21.3064 9.00424 21.0742 8.93432 20.8369 8.93479C20.5187 8.93543 20.2138 9.06241 19.9892 9.28782C19.7646 9.51323 19.6387 9.8186 19.6393 10.1368ZM10.3772 15.4914C10.3828 18.3274 12.686 20.6212 15.5215 20.6158C18.3569 20.6104 20.6523 18.3074 20.6469 15.4714C20.6415 12.6354 18.3377 10.341 15.5019 10.3466C12.666 10.3522 10.3718 12.6558 10.3772 15.4914ZM12.1784 15.4878C12.1771 14.8285 12.3714 14.1836 12.7366 13.6347C13.1018 13.0858 13.6215 12.6575 14.2301 12.404C14.8387 12.1505 15.5088 12.0832 16.1557 12.2105C16.8026 12.3379 17.3971 12.6542 17.8643 13.1194C18.3314 13.5847 18.65 14.178 18.7799 14.8244C18.9098 15.4708 18.8451 16.1411 18.594 16.7507C18.3429 17.3603 17.9167 17.8818 17.3693 18.2491C16.8218 18.6165 16.1777 18.8133 15.5185 18.8146C15.0807 18.8155 14.647 18.7302 14.2422 18.5635C13.8375 18.3968 13.4695 18.152 13.1593 17.843C12.8492 17.5341 12.6029 17.1671 12.4346 16.763C12.2663 16.3589 12.1793 15.9255 12.1784 15.4878Z" fill="#202E48"/>
</g>
<defs>
<clipPath id="clip0_0_1164">
<rect width="30" height="30" fill="white" transform="translate(0.51178 0.481445)"/>
</clipPath>
</defs>
</svg>
