<svg width="31" height="31" viewBox="0 0 31 31" fill="none" xmlns="http://www.w3.org/2000/svg">
<g id="SVG" clip-path="url(#clip0_0_1175)">
<path id="Vector" d="M15.9318 30.4814C24.216 30.4814 30.9318 23.7657 30.9318 15.4814C30.9318 7.19717 24.216 0.481445 15.9318 0.481445C7.64749 0.481445 0.931763 7.19717 0.931763 15.4814C0.931763 23.7657 7.64749 30.4814 15.9318 30.4814Z" fill="white"/>
<path id="Vector_2" d="M25.9318 5.48145H5.93176V24.9814H25.9318V5.48145Z" fill="#202E48"/>
<path id="Vector_3" d="M26.9318 6.0991V24.8638C26.9318 25.2928 26.7614 25.7042 26.458 26.0076C26.1546 26.311 25.7432 26.4814 25.3142 26.4814H6.54941C6.12038 26.4814 5.70893 26.311 5.40556 26.0076C5.10219 25.7042 4.93176 25.2928 4.93176 24.8638V6.0991C4.93176 5.67007 5.10219 5.25862 5.40556 4.95525C5.70893 4.65188 6.12038 4.48145 6.54941 4.48145H25.3142C25.7432 4.48145 26.1546 4.65188 26.458 4.95525C26.7614 5.25862 26.9318 5.67007 26.9318 6.0991ZM11.4024 12.8932H8.16705V23.2461H11.4024V12.8932ZM11.6936 9.33438C11.6953 9.08966 11.6488 8.847 11.5567 8.62026C11.4646 8.39351 11.3288 8.18712 11.1569 8.01287C10.9851 7.83863 10.7806 7.69993 10.5551 7.60471C10.3297 7.50949 10.0877 7.45961 9.84294 7.45792H9.7847C9.28703 7.45792 8.80974 7.65562 8.45784 8.00753C8.10593 8.35943 7.90823 8.83671 7.90823 9.33438C7.90823 9.83206 8.10593 10.3093 8.45784 10.6612C8.80974 11.0131 9.28703 11.2108 9.7847 11.2108C10.0294 11.2168 10.273 11.1746 10.5014 11.0864C10.7298 10.9983 10.9386 10.866 11.1159 10.6972C11.2931 10.5283 11.4354 10.3263 11.5345 10.1024C11.6336 9.87856 11.6877 9.63736 11.6936 9.39262V9.33438ZM23.6965 16.9567C23.6965 13.8443 21.7165 12.6343 19.7494 12.6343C19.1054 12.6021 18.4641 12.7393 17.8896 13.0322C17.3152 13.3251 16.8275 13.7635 16.4753 14.3038H16.3847V12.8932H13.3436V23.2461H16.5789V17.7396C16.5321 17.1757 16.7097 16.616 17.0732 16.1823C17.4367 15.7486 17.9566 15.4758 18.52 15.4232H18.643C19.6718 15.4232 20.4353 16.0702 20.4353 17.7008V23.2461H23.6706L23.6965 16.9567Z" fill="white"/>
</g>
<defs>
<clipPath id="clip0_0_1175">
<rect width="30" height="30" fill="white" transform="translate(0.931763 0.481445)"/>
</clipPath>
</defs>
</svg>
