<svg width="29" height="29" viewBox="0 0 29 29" fill="none" xmlns="http://www.w3.org/2000/svg">
<g id="location.svg">
<path id="Vector" fill-rule="evenodd" clip-rule="evenodd" d="M14.0926 23.1211C14.0926 23.1211 21.2926 17.1223 21.2926 12.3042C21.2926 8.38612 18.0199 5.12109 14.0926 5.12109C10.0718 5.12109 6.89258 8.29283 6.89258 12.3042C6.89258 17.2156 14.0926 23.1211 14.0926 23.1211ZM14.0926 6.02109C10.5669 6.02109 7.79258 8.79188 7.79258 12.3042C7.79258 13.3228 8.17012 14.4601 8.80868 15.6372C9.44256 16.8057 10.2991 17.9505 11.1746 18.9672C12.0476 19.9809 12.9233 20.8488 13.5819 21.4639C13.7709 21.6404 13.9415 21.7956 14.0885 21.9271C14.2366 21.7931 14.4087 21.6346 14.5995 21.4543C15.2587 20.8315 16.1352 19.9544 17.009 18.934C17.8852 17.9108 18.7427 16.7621 19.3771 15.5967C20.0169 14.4214 20.3926 13.2969 20.3926 12.3042C20.3926 8.88517 17.5248 6.02109 14.0926 6.02109Z" fill="#4C5C79"/>
<path id="Vector_2" fill-rule="evenodd" clip-rule="evenodd" d="M14.0926 14.1211C15.0867 14.1211 15.8926 13.3152 15.8926 12.3211C15.8926 11.327 15.0867 10.5211 14.0926 10.5211C13.0985 10.5211 12.2926 11.327 12.2926 12.3211C12.2926 13.3152 13.0985 14.1211 14.0926 14.1211ZM14.0926 15.0211C15.5837 15.0211 16.7926 13.8123 16.7926 12.3211C16.7926 10.8299 15.5837 9.62109 14.0926 9.62109C12.6014 9.62109 11.3926 10.8299 11.3926 12.3211C11.3926 13.8123 12.6014 15.0211 14.0926 15.0211Z" fill="#4C5C79"/>
</g>
</svg>
