<svg width="21" height="21" viewBox="0 0 21 21" fill="none" xmlns="http://www.w3.org/2000/svg">
<g id="Messenger.svg" clip-path="url(#clip0_0_1403)">
<path id="Vector" d="M10.6118 20.6211C16.1346 20.6211 20.6118 16.1439 20.6118 10.6211C20.6118 5.09825 16.1346 0.621094 10.6118 0.621094C5.08895 0.621094 0.611794 5.09825 0.611794 10.6211C0.611794 16.1439 5.08895 20.6211 10.6118 20.6211Z" fill="#4C5C79"/>
<g id="Clip path group">
<mask id="mask0_0_1403" style="mask-type:luminance" maskUnits="userSpaceOnUse" x="5" y="5" width="12" height="12">
<g id="clip0_1692_248">
<path id="Vector_2" d="M16.1682 5.06543H5.0571V16.1765H16.1682V5.06543Z" fill="white"/>
</g>
</mask>
<g mask="url(#mask0_0_1403)">
<g id="Group">
<path id="Vector_3" d="M10.6127 5.06543C7.48349 5.06543 5.0571 7.35848 5.0571 10.4543C5.0571 12.0738 5.72099 13.4738 6.80155 14.4404C6.89182 14.521 6.94738 14.6349 6.95016 14.7571L6.98071 15.746C6.98294 15.8188 7.003 15.8899 7.03914 15.9531C7.07528 16.0162 7.12638 16.0696 7.18797 16.1084C7.24955 16.1472 7.31972 16.1703 7.39232 16.1757C7.46492 16.181 7.53772 16.1684 7.60432 16.1391L8.7071 15.6529C8.80016 15.6113 8.90571 15.6043 9.00432 15.6307C9.51127 15.7696 10.0502 15.8446 10.6127 15.8446C13.7418 15.8446 16.1682 13.5516 16.1682 10.4557C16.1682 7.35987 13.7418 5.06543 10.6127 5.06543Z" fill="white"/>
<path id="Vector_4" d="M7.27592 12.0306L8.90786 9.44173C8.96926 9.34426 9.05019 9.26058 9.14555 9.19596C9.24092 9.13135 9.34864 9.08721 9.46192 9.06633C9.57521 9.04544 9.69159 9.04828 9.80372 9.07464C9.91586 9.10101 10.0213 9.15033 10.1134 9.21951L11.412 10.1931C11.47 10.2365 11.5405 10.2599 11.613 10.2596C11.6854 10.2594 11.7558 10.2355 11.8134 10.1917L13.5662 8.86118C13.7995 8.6834 14.1051 8.96395 13.9495 9.21257L12.3162 11.8001C12.2548 11.8975 12.1739 11.9812 12.0785 12.0458C11.9832 12.1105 11.8754 12.1546 11.7621 12.1755C11.6489 12.1964 11.5325 12.1935 11.4203 12.1672C11.3082 12.1408 11.2028 12.0915 11.1106 12.0223L9.81203 11.0487C9.75406 11.0053 9.68352 10.9819 9.6111 10.9822C9.53868 10.9824 9.46831 11.0063 9.41064 11.0501L7.65787 12.3806C7.42453 12.5584 7.11898 12.2792 7.27592 12.0306Z" fill="#4C5C79"/>
</g>
</g>
</g>
</g>
<defs>
<clipPath id="clip0_0_1403">
<rect width="20" height="20" fill="white" transform="translate(0.611794 0.621094)"/>
</clipPath>
</defs>
</svg>
