<svg width="21" height="21" viewBox="0 0 21 21" fill="none" xmlns="http://www.w3.org/2000/svg">
<g id="messenger.svg" clip-path="url(#clip0_0_925)">
<path id="Vector" d="M10.0918 20.9016C15.6146 20.9016 20.0918 16.4245 20.0918 10.9016C20.0918 5.37876 15.6146 0.901611 10.0918 0.901611C4.56895 0.901611 0.0917969 5.37876 0.0917969 10.9016C0.0917969 16.4245 4.56895 20.9016 10.0918 20.9016Z" fill="#A14669"/>
<g id="Clip path group">
<mask id="mask0_0_925" style="mask-type:luminance" maskUnits="userSpaceOnUse" x="4" y="5" width="12" height="12">
<g id="clip0_2321_14000">
<path id="Vector_2" d="M15.6472 5.34595H4.53613V16.457H15.6472V5.34595Z" fill="white"/>
</g>
</mask>
<g mask="url(#mask0_0_925)">
<g id="Group">
<path id="Vector_3" d="M10.0917 5.34595C6.96251 5.34595 4.53613 7.639 4.53613 10.7348C4.53613 12.3543 5.20001 13.7543 6.28057 14.7209C6.37085 14.8015 6.4264 14.9154 6.42918 15.0376L6.45974 16.0265C6.46196 16.0993 6.48202 16.1704 6.51816 16.2336C6.5543 16.2967 6.60541 16.3501 6.66699 16.3889C6.72857 16.4277 6.79875 16.4508 6.87135 16.4562C6.94395 16.4615 7.01674 16.4489 7.08335 16.4196L8.18613 15.9334C8.27918 15.8918 8.38474 15.8848 8.48335 15.9112C8.99029 16.0501 9.52918 16.1251 10.0917 16.1251C13.2209 16.1251 15.6472 13.8321 15.6472 10.7362C15.6472 7.64039 13.2209 5.34595 10.0917 5.34595Z" fill="white"/>
<path id="Vector_4" d="M6.75593 12.3111L8.38787 9.72225C8.44927 9.62478 8.5302 9.5411 8.62556 9.47648C8.72093 9.41187 8.82865 9.36773 8.94193 9.34685C9.05522 9.32596 9.1716 9.3288 9.28373 9.35516C9.39587 9.38153 9.50132 9.43085 9.59343 9.50003L10.892 10.4736C10.95 10.517 11.0205 10.5404 11.093 10.5401C11.1654 10.5399 11.2358 10.5161 11.2934 10.4722L13.0462 9.1417C13.2795 8.96392 13.5851 9.24447 13.4295 9.49309L11.7962 12.0806C11.7348 12.178 11.6539 12.2617 11.5585 12.3263C11.4632 12.391 11.3554 12.4351 11.2421 12.456C11.1289 12.4769 11.0125 12.474 10.9003 12.4477C10.7882 12.4213 10.6828 12.372 10.5906 12.3028L9.29204 11.3292C9.23407 11.2858 9.16353 11.2624 9.09111 11.2627C9.01869 11.2629 8.94832 11.2868 8.89065 11.3306L7.13788 12.6611C6.90454 12.8389 6.59899 12.5597 6.75593 12.3111Z" fill="#A14669"/>
</g>
</g>
</g>
</g>
<defs>
<clipPath id="clip0_0_925">
<rect width="20" height="20" fill="white" transform="translate(0.0917969 0.901611)"/>
</clipPath>
</defs>
</svg>
