<svg width="31" height="31" viewBox="0 0 31 31" fill="none" xmlns="http://www.w3.org/2000/svg">
<g id="SVG" clip-path="url(#clip0_0_1156)">
<g id="Clip path group">
<mask id="mask0_0_1156" style="mask-type:luminance" maskUnits="userSpaceOnUse" x="0" y="0" width="31" height="31">
<g id="clip0_1628_6727">
<path id="Vector" d="M30.2918 0.481445H0.291809V30.4814H30.2918V0.481445Z" fill="white"/>
</g>
</mask>
<g mask="url(#mask0_0_1156)">
<g id="Group">
<path id="Vector_2" d="M30.2918 15.4814C30.2918 7.19718 23.5761 0.481445 15.2918 0.481445C7.00754 0.481445 0.291809 7.19718 0.291809 15.4814C0.291809 22.9683 5.77709 29.1739 12.948 30.2991V19.8173H9.13947V15.4814H12.948V12.1767C12.948 8.41738 15.1875 6.34083 18.6137 6.34083C20.2549 6.34083 21.9715 6.63379 21.9715 6.63379V10.3252H20.08C18.2167 10.3252 17.6356 11.4814 17.6356 12.6676V15.4814H21.7957L21.1307 19.8173H17.6356V30.2991C24.8065 29.1739 30.2918 22.9683 30.2918 15.4814Z" fill="white"/>
<path id="Vector_3" d="M21.1307 19.8173L21.7957 15.4814H17.6356V12.6676C17.6356 11.4814 18.2167 10.3252 20.08 10.3252H21.9715V6.63378C21.9715 6.63378 20.2549 6.34082 18.6137 6.34082C15.1875 6.34082 12.948 8.41737 12.948 12.1767V15.4814H9.13947V19.8173H12.948V30.2991C14.5011 30.5422 16.0825 30.5422 17.6356 30.2991V19.8173H21.1307Z" fill="#202E48"/>
</g>
</g>
</g>
</g>
<defs>
<clipPath id="clip0_0_1156">
<rect width="30" height="30" fill="white" transform="translate(0.291809 0.481445)"/>
</clipPath>
</defs>
</svg>
