<svg width="26" height="26" viewBox="0 0 26 26" fill="none" xmlns="http://www.w3.org/2000/svg">
<g id="refresh.svg" clip-path="url(#clip0_0_889)">
<g id="Mask group">
<mask id="mask0_0_889" style="mask-type:luminance" maskUnits="userSpaceOnUse" x="1" y="2" width="25" height="21">
<g id="Group">
<path id="Vector" fill-rule="evenodd" clip-rule="evenodd" d="M1.39036 11.2926C1.44015 11.3176 1.48994 11.3427 1.53973 11.3927C1.63932 11.4929 1.83849 11.4929 1.93808 11.4929H7.91318C8.51069 11.4929 8.90903 11.0922 8.90903 10.4912C8.90903 9.89027 8.51069 9.48961 7.91318 9.48961H4.4277L7.31567 6.88528C8.11235 5.98379 9.20778 5.38279 10.3032 4.98212C12.2949 4.28096 14.4858 4.38113 16.3779 5.28262C18.27 6.28429 19.7638 7.88695 20.4609 9.89027C20.6601 10.3911 21.2576 10.6916 21.7555 10.4912C22.2534 10.2909 22.5522 9.68994 22.353 9.18911C21.4567 6.68495 19.6642 4.68163 17.2742 3.47963C14.8841 2.3778 12.1953 2.17747 9.70571 3.07896C8.31152 3.5798 7.01691 4.38113 6.02106 5.38279L3.03351 8.18745V4.48129C3.03351 3.88029 2.63517 3.47963 2.03766 3.47963C1.44015 3.47963 1.04181 3.88029 1.04181 4.48129V10.5914V10.6916V10.8919C1.04181 10.942 1.06671 10.967 1.0916 10.9921C1.1165 11.0171 1.14139 11.0422 1.14139 11.0922C1.24098 11.0922 1.24098 11.1924 1.24098 11.1924C1.29077 11.2425 1.34056 11.2675 1.39036 11.2926ZM24.8427 14.0972V14.2976C24.8427 14.3324 24.8427 14.3551 24.851 14.3742C24.8668 14.4098 24.9119 14.4326 25.0418 14.4979V20.5079C25.0418 21.1089 24.6435 21.5095 24.046 21.5095C23.4485 21.5095 23.0501 21.1089 23.0501 20.5079V16.8017L20.0626 19.6064C18.1705 21.5095 15.6808 22.5112 13.0916 22.5112C10.5024 22.5112 8.01279 21.6097 6.02109 19.6064C4.92566 18.6047 4.12898 17.3026 3.63105 15.9002C3.43188 15.3994 3.73064 14.7984 4.22856 14.5981C4.72649 14.3977 5.324 14.6982 5.52317 15.1991C5.92151 16.3009 6.6186 17.4027 7.41528 18.204C10.5024 21.3092 15.5812 21.3092 18.6684 18.204L21.4568 15.4996H17.9713C17.3738 15.4996 16.9754 15.0989 16.9754 14.4979C16.9754 13.8969 17.3738 13.4962 17.9713 13.4962H23.9464H24.1456H24.3447L24.4443 13.5964L24.6435 13.7967C24.7431 13.7967 24.7431 13.8969 24.7431 13.8969C24.7431 13.947 24.768 13.972 24.7929 13.9971C24.8178 14.0221 24.8427 14.0471 24.8427 14.0972Z" fill="white"/>
</g>
</mask>
<g mask="url(#mask0_0_889)">
<g id="Group_2">
<path id="Vector_2" d="M25.0418 0.51123H1.04181V24.5112H25.0418V0.51123Z" fill="#4A5EAA"/>
</g>
</g>
</g>
</g>
<defs>
<clipPath id="clip0_0_889">
<rect width="25" height="25" fill="white" transform="translate(0.541809 0.0112305)"/>
</clipPath>
</defs>
</svg>
