<svg width="21" height="21" viewBox="0 0 21 21" fill="none" xmlns="http://www.w3.org/2000/svg">
<g id="SVG" clip-path="url(#clip0_0_1187)">
<path id="Vector" d="M10.0918 20.9814C15.6146 20.9814 20.0918 16.5043 20.0918 10.9814C20.0918 5.4586 15.6146 0.981445 10.0918 0.981445C4.56895 0.981445 0.0917969 5.4586 0.0917969 10.9814C0.0917969 16.5043 4.56895 20.9814 10.0918 20.9814Z" fill="white"/>
<path id="Vector_2" fill-rule="evenodd" clip-rule="evenodd" d="M4.77925 10.8071C7.4636 9.60762 9.2536 8.81682 10.1492 8.43468C12.7064 7.34378 13.2377 7.15428 13.5841 7.14802C13.6603 7.14664 13.8306 7.166 13.9409 7.25782C14.0341 7.33535 14.0597 7.44008 14.0719 7.51359C14.0842 7.5871 14.0995 7.75455 14.0873 7.88542C13.9488 9.37875 13.3492 13.0028 13.0441 14.6755C12.9151 15.3832 12.6609 15.6205 12.4148 15.6437C11.8801 15.6942 11.4741 15.2813 10.9561 14.9331C10.1457 14.3882 9.68787 14.049 8.9012 13.5173C7.99207 12.9028 8.5814 12.5651 9.09953 12.0131C9.23513 11.8687 11.5911 9.67068 11.6367 9.47128C11.6425 9.44635 11.6477 9.35342 11.5939 9.30428C11.5401 9.25522 11.4606 9.27202 11.4033 9.28535C11.322 9.30428 10.0273 10.182 7.5192 11.9185C7.15173 12.1773 6.81887 12.3034 6.52065 12.2967C6.19187 12.2895 5.55944 12.1061 5.08929 11.9493C4.51263 11.7571 4.05431 11.6555 4.09422 11.3289C4.11501 11.1589 4.34335 10.9849 4.77925 10.8071Z" fill="#202E48"/>
</g>
<defs>
<clipPath id="clip0_0_1187">
<rect width="20" height="20" fill="white" transform="translate(0.0917969 0.981445)"/>
</clipPath>
</defs>
</svg>
