<svg width="21" height="21" viewBox="0 0 21 21" fill="none" xmlns="http://www.w3.org/2000/svg">
<g id="Telegram.svg" clip-path="url(#clip0_0_1415)">
<path id="Vector" d="M10.6118 20.6211C16.1346 20.6211 20.6118 16.1439 20.6118 10.6211C20.6118 5.09825 16.1346 0.621094 10.6118 0.621094C5.08895 0.621094 0.611794 5.09825 0.611794 10.6211C0.611794 16.1439 5.08895 20.6211 10.6118 20.6211Z" fill="#4C5C79"/>
<g id="Clip path group">
<mask id="mask0_0_1415" style="mask-type:luminance" maskUnits="userSpaceOnUse" x="4" y="6" width="11" height="11">
<g id="clip0_1692_1867">
<path id="Vector_2" d="M14.6118 6.28711H4.61179V16.2871H14.6118V6.28711Z" fill="white"/>
</g>
</mask>
<g mask="url(#mask0_0_1415)">
<g id="Group">
<path id="Vector_3" fill-rule="evenodd" clip-rule="evenodd" d="M5.29924 10.4463C7.98359 9.24676 9.77357 8.45595 10.6692 8.07387C13.2264 6.98294 13.7578 6.79344 14.1041 6.78718C14.1803 6.78581 14.3506 6.80517 14.4609 6.89699C14.5541 6.97452 14.5797 7.07925 14.592 7.15275C14.6042 7.22626 14.6195 7.39371 14.6074 7.52455C14.4688 9.01794 13.8692 12.642 13.5641 14.3146C13.435 15.0224 13.1809 15.2597 12.9348 15.2829C12.4001 15.3334 11.994 14.9204 11.4761 14.5722C10.6657 14.0273 10.2079 13.6882 9.42118 13.1564C8.51206 12.542 9.10141 12.2042 9.61952 11.6523C9.75511 11.5079 12.1112 9.30985 12.1568 9.11046C12.1625 9.08552 12.1678 8.99256 12.1139 8.94348C12.0601 8.89439 11.9806 8.91118 11.9233 8.92453C11.842 8.94344 10.5473 9.82115 8.03922 11.5576C7.67173 11.8164 7.33887 11.9426 7.04064 11.9359C6.71186 11.9287 6.07943 11.7453 5.60928 11.5885C5.03262 11.3963 4.5743 11.2946 4.61421 10.9681C4.635 10.798 4.86334 10.6241 5.29924 10.4463Z" fill="white"/>
</g>
</g>
</g>
</g>
<defs>
<clipPath id="clip0_0_1415">
<rect width="20" height="20" fill="white" transform="translate(0.611794 0.621094)"/>
</clipPath>
</defs>
</svg>
