<svg width="21" height="22" viewBox="0 0 21 22" fill="none" xmlns="http://www.w3.org/2000/svg">
<g id="telegram.svg" clip-path="url(#clip0_0_938)">
<path id="Vector" d="M10.0918 20.9016C15.6146 20.9016 20.0918 16.4245 20.0918 10.9016C20.0918 5.37876 15.6146 0.901611 10.0918 0.901611C4.56895 0.901611 0.0917969 5.37876 0.0917969 10.9016C0.0917969 16.4245 4.56895 20.9016 10.0918 20.9016Z" fill="#A14669"/>
<g id="Clip path group">
<mask id="mask0_0_938" style="mask-type:luminance" maskUnits="userSpaceOnUse" x="4" y="6" width="11" height="11">
<g id="clip0_1176_45954">
<path id="Vector_2" d="M14.0918 6.56812H4.0918V16.5681H14.0918V6.56812Z" fill="white"/>
</g>
</mask>
<g mask="url(#mask0_0_938)">
<g id="Group">
<path id="Vector_3" fill-rule="evenodd" clip-rule="evenodd" d="M4.77925 10.7273C7.4636 9.52776 9.25358 8.73695 10.1492 8.35487C12.7064 7.26394 13.2378 7.07444 13.5841 7.06818C13.6603 7.0668 13.8306 7.08617 13.9409 7.17798C14.0341 7.25551 14.0597 7.36025 14.072 7.43375C14.0842 7.50726 14.0995 7.67471 14.0874 7.80555C13.9488 9.29894 13.3492 12.923 13.0441 14.5956C12.915 15.3034 12.6609 15.5407 12.4148 15.5639C11.8801 15.6144 11.474 15.2014 10.9561 14.8532C10.1457 14.3083 9.68786 13.9691 8.90119 13.4374C7.99207 12.823 8.58142 12.4852 9.09953 11.9333C9.23512 11.7888 11.5912 9.59085 11.6368 9.39145C11.6425 9.36652 11.6478 9.27356 11.5939 9.22448C11.5401 9.17539 11.4606 9.19218 11.4033 9.20553C11.322 9.22445 10.0273 10.1022 7.51923 11.8386C7.15174 12.0974 6.81888 12.2235 6.52065 12.2169C6.19187 12.2096 5.55944 12.0263 5.08929 11.8695C4.51263 11.6773 4.05431 11.5756 4.09422 11.2491C4.11501 11.079 4.34335 10.9051 4.77925 10.7273Z" fill="white"/>
</g>
</g>
</g>
</g>
<defs>
<clipPath id="clip0_0_938">
<rect width="20" height="21" fill="white" transform="translate(0.0917969 0.401611)"/>
</clipPath>
</defs>
</svg>
