<svg width="31" height="31" viewBox="0 0 31 31" fill="none" xmlns="http://www.w3.org/2000/svg">
<g id="Link &#226;&#134;&#146; SVG" clip-path="url(#clip0_0_1152)">
<path id="Vector" d="M30.0918 15.4814C30.0918 7.19717 23.3761 0.481445 15.0918 0.481445C6.80753 0.481445 0.0917969 7.19717 0.0917969 15.4814C0.0917969 23.7657 6.80753 30.4814 15.0918 30.4814C23.3761 30.4814 30.0918 23.7657 30.0918 15.4814Z" fill="white"/>
<path id="Vector_2" d="M21.2162 9.49028C20.137 8.78794 19.3588 7.66371 19.1157 6.35385C19.0634 6.07091 19.0343 5.77944 19.0343 5.48145H15.5909L15.5853 19.2612C15.5276 20.8043 14.2555 22.043 12.6966 22.043C12.2118 22.043 11.7556 21.9221 11.3537 21.7109C10.4323 21.2268 9.8018 20.2625 9.8018 19.1529C9.8018 17.5591 11.1005 16.2622 12.6961 16.2622C12.994 16.2622 13.2799 16.3114 13.5501 16.3957V12.8855C13.2703 12.8474 12.986 12.8238 12.6961 12.8238C9.20144 12.8238 6.3584 15.6628 6.3584 19.1529C6.3584 21.294 7.4295 23.1888 9.06429 24.3346C10.0937 25.0565 11.3462 25.4814 12.6966 25.4814C16.1912 25.4814 19.0343 22.6425 19.0343 19.1529V12.1651C20.3847 13.1328 22.0396 13.7032 23.8251 13.7032V10.2648C22.8635 10.2648 21.9677 9.97941 21.2162 9.49028Z" fill="#202E48"/>
</g>
<defs>
<clipPath id="clip0_0_1152">
<rect width="30" height="30" fill="white" transform="translate(0.0917969 0.481445)"/>
</clipPath>
</defs>
</svg>
