<svg width="21" height="22" viewBox="0 0 21 22" fill="none" xmlns="http://www.w3.org/2000/svg">
<g id="viber.svg" clip-path="url(#clip0_0_949)">
<path id="Vector" d="M10.0918 20.9016C15.6146 20.9016 20.0918 16.4245 20.0918 10.9016C20.0918 5.37876 15.6146 0.901611 10.0918 0.901611C4.56895 0.901611 0.0917969 5.37876 0.0917969 10.9016C0.0917969 16.4245 4.56895 20.9016 10.0918 20.9016Z" fill="#A14669"/>
<path id="Vector_2" fill-rule="evenodd" clip-rule="evenodd" d="M14.7375 6.12042C14.4233 5.83444 13.152 4.92315 10.3222 4.91055C10.3222 4.91055 6.98384 4.71199 5.35705 6.18636C4.45178 7.08135 4.13302 8.38976 4.09927 10.0138C4.06552 11.6378 4.02202 14.6799 6.99059 15.5045L6.99359 15.5052L6.99209 16.764C6.99209 16.764 6.97334 17.2737 7.31235 17.3775C7.72336 17.5034 7.96487 17.1159 8.35713 16.6988C8.57238 16.4699 8.86939 16.1328 9.09364 15.8757C11.1239 16.0439 12.6855 15.6586 12.8632 15.6015C13.2735 15.4697 15.5926 15.1763 15.9698 12.1349C16.3591 8.99802 15.7816 7.01467 14.7375 6.12042ZM15.081 11.9082C14.7623 14.448 12.8812 14.6088 12.5347 14.7184C12.387 14.7651 11.0152 15.1022 9.2909 14.9911C9.2909 14.9911 8.00537 16.5225 7.60411 16.9211C7.54186 16.9833 7.46835 17.0085 7.41885 16.9966C7.34985 16.9796 7.33035 16.8988 7.33185 16.781L7.34235 14.6888C4.83129 13.9997 4.97754 11.4103 5.00604 10.0545C5.03454 8.69871 5.29255 7.58738 6.05832 6.84056C7.4346 5.60921 10.2697 5.79295 10.2697 5.79295C12.6637 5.80332 13.8113 6.51605 14.0775 6.75462C14.9603 7.50143 15.4103 9.28919 15.081 11.9082ZM10.5622 12.0608C10.5622 12.0608 10.7872 12.0801 10.9079 11.9319L11.1442 11.6385C11.2582 11.4933 11.5335 11.4 11.8027 11.5481C12.159 11.7467 12.6202 12.0594 12.936 12.3505C13.11 12.4957 13.1505 12.7091 13.032 12.9343L13.0305 12.9388C12.909 13.1522 12.7455 13.3515 12.5392 13.5367L12.5347 13.5404C12.303 13.7315 12.036 13.8427 11.7502 13.7508L11.745 13.7434C11.2327 13.6004 10.0034 12.981 9.21965 12.3639C7.93787 11.3644 7.02734 9.71669 6.77459 8.83355L6.76709 8.82836C6.67408 8.54534 6.78734 8.28159 6.98009 8.05339L6.98384 8.04895C7.1721 7.8452 7.37385 7.68443 7.58911 7.56367L7.59361 7.56293C7.82161 7.44513 8.03762 7.48513 8.18462 7.65702C8.37813 7.85484 8.74189 8.32974 8.99689 8.7765C9.1469 9.04248 9.05314 9.31438 8.90539 9.427L8.60838 9.66038C8.45838 9.77966 8.47788 10.0019 8.47788 10.0019C8.47788 10.0019 8.91739 11.6459 10.5622 12.0608ZM13.1505 10.6976C13.239 10.6969 13.3102 10.6257 13.3095 10.5383C13.3012 9.49812 12.9787 8.66314 12.351 8.05784C11.7247 7.45476 10.9357 7.14581 10.0064 7.13914C9.91866 7.13914 9.84591 7.20878 9.84516 7.29621C9.84516 7.38363 9.91566 7.45476 10.0042 7.4555C10.8479 7.46142 11.5627 7.74 12.1275 8.28455C12.6922 8.82836 12.9817 9.58777 12.9892 10.5413C12.99 10.628 13.0612 10.6976 13.149 10.6976H13.1505ZM12.3082 10.3731H12.3045C12.216 10.3709 12.1462 10.299 12.1485 10.2116C12.1605 9.67075 12.0045 9.23363 11.6707 8.87356C11.3384 8.51497 10.8824 8.31863 10.2757 8.27492C10.1879 8.26825 10.1212 8.19268 10.1279 8.106C10.1347 8.01857 10.2112 7.95337 10.2989 7.9593C10.9814 8.00894 11.5222 8.24454 11.907 8.66018C12.2932 9.07656 12.4822 9.60111 12.468 10.2183C12.4665 10.305 12.3952 10.3731 12.3082 10.3731ZM11.487 10.1012C11.4022 10.1012 11.3317 10.0353 11.3272 9.95081C11.3002 9.4144 11.0444 9.15139 10.5217 9.12398C10.4339 9.11879 10.3657 9.0447 10.3709 8.95728C10.3754 8.87059 10.4504 8.80317 10.5389 8.80836C11.2282 8.84466 11.6115 9.23437 11.6467 9.93525C11.6512 10.0227 11.5837 10.0968 11.4952 10.1012H11.487Z" fill="white"/>
</g>
<defs>
<clipPath id="clip0_0_949">
<rect width="20" height="21" fill="white" transform="translate(0.0917969 0.401611)"/>
</clipPath>
</defs>
</svg>
