<svg width="21" height="21" viewBox="0 0 21 21" fill="none" xmlns="http://www.w3.org/2000/svg">
<g id="viber.svg" clip-path="url(#clip0_0_1426)">
<path id="Vector" d="M20.6118 10.6211C20.6118 5.09825 16.1346 0.621094 10.6118 0.621094C5.08895 0.621094 0.611794 5.09825 0.611794 10.6211C0.611794 16.1439 5.08895 20.6211 10.6118 20.6211C16.1346 20.6211 20.6118 16.1439 20.6118 10.6211Z" fill="#4C5C79"/>
<path id="Vector_2" fill-rule="evenodd" clip-rule="evenodd" d="M15.2575 5.58994C14.9433 5.30394 13.672 4.39264 10.8422 4.38004C10.8422 4.38004 7.50378 4.18144 5.87708 5.65584C4.97178 6.55084 4.65298 7.85924 4.61928 9.48324C4.58548 11.1072 4.54198 14.1493 7.51058 14.9739L7.51358 14.9747L7.51208 16.2334C7.51208 16.2334 7.49328 16.7432 7.83228 16.8469C8.24338 16.9728 8.48488 16.5854 8.87708 16.1682C9.09238 15.9393 9.38938 15.6022 9.61358 15.3451C11.6439 15.5133 13.2055 15.128 13.3832 15.071C13.7935 14.9391 16.1126 14.6457 16.4898 11.6044C16.8791 8.46755 16.3016 6.48414 15.2575 5.58994ZM15.601 11.3777C15.2823 13.9174 13.4012 14.0782 13.0547 14.1878C12.907 14.2345 11.5352 14.5716 9.81088 14.4605C9.81088 14.4605 8.52537 15.9919 8.12407 16.3905C8.06187 16.4527 7.98838 16.4779 7.93888 16.4661C7.86988 16.449 7.85027 16.3683 7.85177 16.2505L7.86238 14.1582C5.35128 13.4692 5.49748 10.8798 5.52598 9.52405C5.55448 8.16814 5.81258 7.05685 6.57828 6.31005C7.95458 5.07865 10.7897 5.26244 10.7897 5.26244C13.1837 5.27284 14.3313 5.98554 14.5975 6.22414C15.4803 6.97094 15.9303 8.75865 15.601 11.3777ZM11.0822 11.5303C11.0822 11.5303 11.3072 11.5495 11.4279 11.4014L11.6642 11.108C11.7782 10.9628 12.0535 10.8694 12.3227 11.0176C12.679 11.2161 13.1402 11.5288 13.456 11.82C13.63 11.9652 13.6705 12.1786 13.552 12.4038L13.5505 12.4082C13.429 12.6216 13.2655 12.8209 13.0592 13.0061L13.0547 13.0098C12.823 13.201 12.556 13.3121 12.2702 13.2202L12.265 13.2128C11.7527 13.0698 10.5234 12.4505 9.73958 11.8333C8.45788 10.8339 7.54728 9.18615 7.29458 8.30305L7.28707 8.29784C7.19407 8.01484 7.30728 7.75105 7.50008 7.52285L7.50378 7.51844C7.69208 7.31464 7.89388 7.15394 8.10908 7.03314L8.11357 7.03244C8.34157 6.91464 8.55758 6.95464 8.70458 7.12654C8.89808 7.32434 9.26188 7.79924 9.51688 8.24594C9.66688 8.51194 9.57308 8.78385 9.42538 8.89645L9.12837 9.12984C8.97837 9.24914 8.99788 9.47144 8.99788 9.47144C8.99788 9.47144 9.43738 11.1154 11.0822 11.5303ZM13.6705 10.1671C13.759 10.1663 13.8302 10.0952 13.8295 10.0078C13.8212 8.96764 13.4987 8.13264 12.871 7.52734C12.2447 6.92424 11.4557 6.61524 10.5264 6.60864C10.4387 6.60864 10.3659 6.67824 10.3652 6.76564C10.3652 6.85314 10.4357 6.92424 10.5242 6.92494C11.3679 6.93094 12.0827 7.20944 12.6475 7.75404C13.2122 8.29784 13.5017 9.05725 13.5092 10.0107C13.51 10.0974 13.5812 10.1671 13.669 10.1671H13.6705ZM12.8282 9.84255H12.8245C12.736 9.84035 12.6662 9.76854 12.6685 9.68104C12.6805 9.14024 12.5245 8.70315 12.1907 8.34305C11.8584 7.98445 11.4024 7.78814 10.7957 7.74444C10.7079 7.73774 10.6412 7.66214 10.6479 7.57544C10.6547 7.48804 10.7312 7.42285 10.8189 7.42875C11.5014 7.47845 12.0422 7.71404 12.427 8.12964C12.8132 8.54604 13.0022 9.07055 12.988 9.68775C12.9865 9.77445 12.9152 9.84255 12.8282 9.84255ZM12.007 9.57065C11.9222 9.57065 11.8517 9.50475 11.8472 9.42025C11.8202 8.88385 11.5644 8.62084 11.0417 8.59344C10.9539 8.58824 10.8857 8.51414 10.8909 8.42674C10.8954 8.34004 10.9704 8.27264 11.0589 8.27784C11.7482 8.31414 12.1315 8.70384 12.1667 9.40474C12.1712 9.49214 12.1037 9.56625 12.0152 9.57065H12.007Z" fill="white"/>
</g>
<defs>
<clipPath id="clip0_0_1426">
<rect width="20" height="20" fill="white" transform="translate(0.611794 0.621094)"/>
</clipPath>
</defs>
</svg>
