<svg width="31" height="31" viewBox="0 0 31 31" fill="none" xmlns="http://www.w3.org/2000/svg">
<g id="Link &#226;&#134;&#146; SVG" clip-path="url(#clip0_0_1167)">
<path id="Vector" d="M15.7318 30.4814C24.0161 30.4814 30.7318 23.7657 30.7318 15.4814C30.7318 7.19717 24.0161 0.481445 15.7318 0.481445C7.44754 0.481445 0.731812 7.19717 0.731812 15.4814C0.731812 23.7657 7.44754 30.4814 15.7318 30.4814Z" fill="white"/>
<g id="Clip path group">
<mask id="mask0_0_1167" style="mask-type:luminance" maskUnits="userSpaceOnUse" x="6" y="7" width="20" height="16">
<g id="clip0_1628_6734">
<path id="Vector_2" d="M25.013 7.98145H6.73181V22.9814H25.013V7.98145Z" fill="white"/>
</g>
</mask>
<g mask="url(#mask0_0_1167)">
<g id="Group">
<path id="Vector_3" fill-rule="evenodd" clip-rule="evenodd" d="M25.0128 9.75798C24.339 10.0582 23.6161 10.262 22.8577 10.3529C23.6325 9.88468 24.2272 9.14102 24.5054 8.25688C23.7798 8.69206 22.9777 9.00605 22.1239 9.17682C21.4391 8.44142 20.4652 7.98145 19.3849 7.98145C17.3144 7.98145 15.6339 9.67811 15.6339 11.7686C15.6339 12.066 15.6666 12.3553 15.7321 12.6307C12.614 12.4737 9.85051 10.9643 8.00091 8.67278C7.67901 9.23191 7.4935 9.88193 7.4935 10.576C7.4935 11.8898 8.15641 13.0493 9.16305 13.7269C8.54924 13.7076 7.9709 13.5369 7.46349 13.2532C7.46349 13.2697 7.46349 13.2835 7.46349 13.3C7.46349 15.1344 8.75657 16.6658 10.4725 17.0128C10.1588 17.0982 9.82596 17.145 9.48496 17.145C9.24216 17.145 9.00755 17.1202 8.7784 17.0761C9.2558 18.58 10.6416 19.6762 12.2812 19.7065C10.9963 20.7229 9.38129 21.3288 7.62172 21.3288C7.31891 21.3288 7.02155 21.3095 6.72693 21.2765C8.38556 22.3507 10.3579 22.9786 12.4776 22.9786C19.3767 22.9786 23.1496 17.2084 23.1496 12.2038C23.1496 12.0385 23.1469 11.876 23.1387 11.7135C23.8725 11.1792 24.5082 10.5126 25.0101 9.75247L25.0128 9.75798Z" fill="#202E48"/>
</g>
</g>
</g>
</g>
<defs>
<clipPath id="clip0_0_1167">
<rect width="30" height="30" fill="white" transform="translate(0.731812 0.481445)"/>
</clipPath>
</defs>
</svg>
