<svg width="31" height="31" viewBox="0 0 31 31" fill="none" xmlns="http://www.w3.org/2000/svg">
<g id="SVG" clip-path="url(#clip0_0_1180)">
<path id="Vector" d="M30.1518 15.4814C30.1518 7.19717 23.4361 0.481445 15.1518 0.481445C6.86752 0.481445 0.151794 7.19717 0.151794 15.4814C0.151794 23.7657 6.86752 30.4814 15.1518 30.4814C23.4361 30.4814 30.1518 23.7657 30.1518 15.4814Z" fill="white"/>
<path id="Vector_2" fill-rule="evenodd" clip-rule="evenodd" d="M22.9657 8.87919C23.8262 9.10988 24.5038 9.78958 24.7338 10.6527C25.1518 12.2171 25.1518 15.4812 25.1518 15.4812C25.1518 15.4812 25.1518 18.7452 24.7338 20.3098C24.5038 21.1728 23.8262 21.8525 22.9657 22.0833C21.406 22.5025 15.1518 22.5025 15.1518 22.5025C15.1518 22.5025 8.89762 22.5025 7.33791 22.0833C6.47743 21.8525 5.79969 21.1728 5.56971 20.3098C5.15179 18.7452 5.15179 15.4812 5.15179 15.4812C5.15179 15.4812 5.15179 12.2171 5.56971 10.6527C5.79969 9.78958 6.47743 9.10988 7.33791 8.87919C8.89762 8.45996 15.1518 8.45996 15.1518 8.45996C15.1518 8.45996 21.406 8.45996 22.9657 8.87919ZM18.3337 15.4811L13.1064 18.4445V12.5175L18.3337 15.4811Z" fill="#202E48"/>
</g>
<defs>
<clipPath id="clip0_0_1180">
<rect width="30" height="30" fill="white" transform="translate(0.151794 0.481445)"/>
</clipPath>
</defs>
</svg>
